<svg xmlns="http://www.w3.org/2000/svg" xmlns:xlink="http://www.w3.org/1999/xlink" contentStyleType="text/css" height="1085px" preserveAspectRatio="none" style="width:229px;height:1085px;background:#FFFFFF;" version="1.1" viewBox="0 0 229 1085" width="229px" zoomAndPan="magnify"><defs/><g><ellipse cx="78" cy="16" fill="#222222" rx="10" ry="10" style="stroke:#222222;stroke-width:1.0;"/><rect fill="#F1F1F1" height="40" rx="12.5" ry="12.5" style="stroke:#181818;stroke-width:0.5;" width="55.917" x="50" y="105"/><text fill="#000000" font-family="sans-serif" font-size="14" lengthAdjust="spacing" textLength="45.917" x="55" y="130.7969">Creada</text><rect fill="#F1F1F1" height="40" rx="12.5" ry="12.5" style="stroke:#181818;stroke-width:0.5;" width="77.7168" x="39" y="224"/><text fill="#000000" font-family="sans-serif" font-size="14" lengthAdjust="spacing" textLength="67.7168" x="44" y="249.7969">Esperando</text><rect fill="#F1F1F1" height="40" rx="12.5" ry="12.5" style="stroke:#181818;stroke-width:0.5;" width="85.4824" x="35.5" y="343"/><text fill="#000000" font-family="sans-serif" font-size="14" lengthAdjust="spacing" textLength="75.4824" x="40.5" y="368.7969">EnAscensor</text><rect fill="#F1F1F1" height="40" rx="12.5" ry="12.5" style="stroke:#181818;stroke-width:0.5;" width="141.5439" x="7" y="462"/><text fill="#000000" font-family="sans-serif" font-size="14" lengthAdjust="spacing" textLength="131.5439" x="12" y="487.7969">SeleccionandoPlanta</text><rect fill="#F1F1F1" height="40" rx="12.5" ry="12.5" style="stroke:#181818;stroke-width:0.5;" width="98.7031" x="28.5" y="581"/><text fill="#000000" font-family="sans-serif" font-size="14" lengthAdjust="spacing" textLength="88.7031" x="33.5" y="606.7969">EnMovimiento</text><rect fill="#F1F1F1" height="40" rx="12.5" ry="12.5" style="stroke:#181818;stroke-width:0.5;" width="66.8203" x="44.5" y="700"/><text fill="#000000" font-family="sans-serif" font-size="14" lengthAdjust="spacing" textLength="56.8203" x="49.5" y="725.7969">EnPlanta</text><rect fill="#F1F1F1" height="40" rx="12.5" ry="12.5" style="stroke:#181818;stroke-width:0.5;" width="138.4131" x="9" y="819"/><text fill="#000000" font-family="sans-serif" font-size="14" lengthAdjust="spacing" textLength="128.4131" x="14" y="844.7969">SaliendoUniversidad</text><rect fill="#F1F1F1" height="40" rx="12.5" ry="12.5" style="stroke:#181818;stroke-width:0.5;" width="120.4961" x="18" y="938"/><text fill="#000000" font-family="sans-serif" font-size="14" lengthAdjust="spacing" textLength="110.4961" x="23" y="963.7969">FueraUniversidad</text><ellipse cx="78" cy="1068" fill="none" rx="11" ry="11" style="stroke:#222222;stroke-width:1.0;"/><ellipse cx="78" cy="1068" fill="#222222" rx="6" ry="6" style="stroke:#222222;stroke-width:1.0;"/><!--link *start* to Creada--><g id="link_*start*_Creada"><path d="M78,26.12 C78,43.51 78,75.72 78,98.92 " fill="none" id="*start*-to-Creada" style="stroke:#181818;stroke-width:1.0;"/><polygon fill="#181818" points="78,104.92,82,95.92,78,99.92,74,95.92,78,104.92" style="stroke:#181818;stroke-width:1.0;"/><text fill="#000000" font-family="sans-serif" font-size="13" lengthAdjust="spacing" textLength="29.6245" x="79" y="71.0283">inicio</text></g><!--link Creada to Esperando--><g id="link_Creada_Esperando"><path d="M78,145.06 C78,166.82 78,196.2 78,217.95 " fill="none" id="Creada-to-Esperando" style="stroke:#181818;stroke-width:1.0;"/><polygon fill="#181818" points="78,223.95,82,214.95,78,218.95,74,214.95,78,223.95" style="stroke:#181818;stroke-width:1.0;"/><text fill="#000000" font-family="sans-serif" font-size="13" lengthAdjust="spacing" textLength="142.3589" x="79" y="190.0283">personaEsperaAscensor</text></g><!--link Esperando to EnAscensor--><g id="link_Esperando_EnAscensor"><path d="M78,264.06 C78,285.82 78,315.2 78,336.95 " fill="none" id="Esperando-to-EnAscensor" style="stroke:#181818;stroke-width:1.0;"/><polygon fill="#181818" points="78,342.95,82,333.95,78,337.95,74,333.95,78,342.95" style="stroke:#181818;stroke-width:1.0;"/><text fill="#000000" font-family="sans-serif" font-size="13" lengthAdjust="spacing" textLength="44.0781" x="79" y="309.0283">recoger</text></g><!--link EnAscensor to SeleccionandoPlanta--><g id="link_EnAscensor_SeleccionandoPlanta"><path d="M78,383.06 C78,404.82 78,434.2 78,455.95 " fill="none" id="EnAscensor-to-SeleccionandoPlanta" style="stroke:#181818;stroke-width:1.0;"/><polygon fill="#181818" points="78,461.95,82,452.95,78,456.95,74,452.95,78,461.95" style="stroke:#181818;stroke-width:1.0;"/><text fill="#000000" font-family="sans-serif" font-size="13" lengthAdjust="spacing" textLength="66.498" x="79" y="428.0283">elige planta</text></g><!--link SeleccionandoPlanta to EnMovimiento--><g id="link_SeleccionandoPlanta_EnMovimiento"><path d="M78,502.06 C78,523.82 78,553.2 78,574.95 " fill="none" id="SeleccionandoPlanta-to-EnMovimiento" style="stroke:#181818;stroke-width:1.0;"/><polygon fill="#181818" points="78,580.95,82,571.95,78,575.95,74,571.95,78,580.95" style="stroke:#181818;stroke-width:1.0;"/><text fill="#000000" font-family="sans-serif" font-size="13" lengthAdjust="spacing" textLength="36.1182" x="79" y="547.0283">mover</text></g><!--link EnMovimiento to EnPlanta--><g id="link_EnMovimiento_EnPlanta"><path d="M78,621.06 C78,642.82 78,672.2 78,693.95 " fill="none" id="EnMovimiento-to-EnPlanta" style="stroke:#181818;stroke-width:1.0;"/><polygon fill="#181818" points="78,699.95,82,690.95,78,694.95,74,690.95,78,699.95" style="stroke:#181818;stroke-width:1.0;"/><text fill="#000000" font-family="sans-serif" font-size="13" lengthAdjust="spacing" textLength="28.9072" x="79" y="666.0283">bajar</text></g><!--link EnPlanta to SaliendoUniversidad--><g id="link_EnPlanta_SaliendoUniversidad"><path d="M78,740.06 C78,761.82 78,791.2 78,812.95 " fill="none" id="EnPlanta-to-SaliendoUniversidad" style="stroke:#181818;stroke-width:1.0;"/><polygon fill="#181818" points="78,818.95,82,809.95,78,813.95,74,809.95,78,818.95" style="stroke:#181818;stroke-width:1.0;"/><text fill="#000000" font-family="sans-serif" font-size="13" lengthAdjust="spacing" textLength="99.728" x="79" y="785.0283">jornada completa</text></g><!--link SaliendoUniversidad to FueraUniversidad--><g id="link_SaliendoUniversidad_FueraUniversidad"><path d="M78,859.06 C78,880.82 78,910.2 78,931.95 " fill="none" id="SaliendoUniversidad-to-FueraUniversidad" style="stroke:#181818;stroke-width:1.0;"/><polygon fill="#181818" points="78,937.95,82,928.95,78,932.95,74,928.95,78,937.95" style="stroke:#181818;stroke-width:1.0;"/><text fill="#000000" font-family="sans-serif" font-size="13" lengthAdjust="spacing" textLength="78.0444" x="79" y="904.0283">salida edificio</text></g><!--link FueraUniversidad to *end*--><g id="link_FueraUniversidad_*end*"><path d="M78,978.06 C78,1001.07 78,1032.92 78,1050.9 " fill="none" id="FueraUniversidad-to-*end*" style="stroke:#181818;stroke-width:1.0;"/><polygon fill="#181818" points="78,1056.9,82,1047.9,78,1051.9,74,1047.9,78,1056.9" style="stroke:#181818;stroke-width:1.0;"/><text fill="#000000" font-family="sans-serif" font-size="13" lengthAdjust="spacing" textLength="13.73" x="79" y="1023.0283">fin</text></g><!--SRC=[TP3DIWD1383lynIvjGfzWOA2QBqL2iMJU8WpwPeocmmpsu9lRxAhjc8xjqc-BtypkBlsmWoU6BkAFK8YMBK1apQORwWs5Ron_7NtWqsXlWoVvhPOkGoi4iBhxHii5lVmM0aJmX9OEBA6xx-dLgrGHKbgsJBrca8FBP8qhU54ZBpy94oe5BKZGqv1PxQKALeVSMkJKGRlJPaxWZ9-moLaAh_M8_TCClX4lHx7ycV1YVgj-evxTEAinXQpeKbVXCrkd30PkDSgldJKlcJo4IvWhZyVRDs_RZFKL4gy6-_t3t7FZxs47Klu0W00]--></g></svg>