<svg xmlns="http://www.w3.org/2000/svg" xmlns:xlink="http://www.w3.org/1999/xlink" contentStyleType="text/css" height="490px" preserveAspectRatio="none" style="width:453px;height:490px;background:#FFFFFF;" version="1.1" viewBox="0 0 453 490" width="453px" zoomAndPan="magnify"><defs/><g><ellipse cx="182.5" cy="16" fill="#222222" rx="10" ry="10" style="stroke:#222222;stroke-width:1.0;"/><rect fill="#F1F1F1" height="40" rx="12.5" ry="12.5" style="stroke:#181818;stroke-width:0.5;" width="77.7168" x="143.5" y="87"/><text fill="#000000" font-family="sans-serif" font-size="14" lengthAdjust="spacing" textLength="67.7168" x="148.5" y="112.7969">Esperando</text><rect fill="#F1F1F1" height="40" rx="12.5" ry="12.5" style="stroke:#181818;stroke-width:0.5;" width="71.4893" x="7" y="206"/><text fill="#000000" font-family="sans-serif" font-size="14" lengthAdjust="spacing" textLength="61.4893" x="12" y="231.7969">Cargando</text><rect fill="#F1F1F1" height="40" rx="12.5" ry="12.5" style="stroke:#181818;stroke-width:0.5;" width="85.4893" x="17" y="325"/><text fill="#000000" font-family="sans-serif" font-size="14" lengthAdjust="spacing" textLength="75.4893" x="22" y="350.7969">Movi&#233;ndose</text><rect fill="#F1F1F1" height="40" rx="12.5" ry="12.5" style="stroke:#181818;stroke-width:0.5;" width="93.2754" x="140" y="444"/><text fill="#000000" font-family="sans-serif" font-size="14" lengthAdjust="spacing" textLength="83.2754" x="145" y="469.7969">Descargando</text><!--link *start* to Esperando--><g id="link_*start*_Esperando"><path d="M182.5,26.19 C182.5,40.4 182.5,62.02 182.5,80.74 " fill="none" id="*start*-to-Esperando" style="stroke:#181818;stroke-width:1.0;"/><polygon fill="#181818" points="182.5,86.74,186.5,77.74,182.5,81.74,178.5,77.74,182.5,86.74" style="stroke:#181818;stroke-width:1.0;"/></g><!--link Esperando to Cargando--><g id="link_Esperando_Cargando"><path d="M159.69,127.06 C133.66,148.82 95.9342,180.3528 69.9042,202.1028 " fill="none" id="Esperando-to-Cargando" style="stroke:#181818;stroke-width:1.0;"/><polygon fill="#181818" points="65.3,205.95,74.7712,203.2487,69.1369,202.744,69.6416,197.1097,65.3,205.95" style="stroke:#181818;stroke-width:1.0;"/><text fill="#000000" font-family="sans-serif" font-size="13" lengthAdjust="spacing" textLength="142.3716" x="122.5" y="172.0283">solicitud en planta actual</text></g><!--link Cargando to Movi?ndose--><g id="link_Cargando_Movi&#233;ndose"><path d="M34.61,246.26 C30.07,259.99 26.07,278.81 30.5,295 C33.37,305.49 35.841,310.9918 41.471,319.5818 " fill="none" id="Cargando-to-Movi&#233;ndose" style="stroke:#181818;stroke-width:1.0;"/><polygon fill="#181818" points="44.76,324.6,43.172,314.88,42.0192,320.4182,36.481,319.2653,44.76,324.6" style="stroke:#181818;stroke-width:1.0;"/><text fill="#000000" font-family="sans-serif" font-size="13" lengthAdjust="spacing" textLength="239.1987" x="31.5" y="291.0283">puertas cerradas y hay tareas pendientes</text></g><!--link Movi?ndose to Descargando--><g id="link_Movi&#233;ndose_Descargando"><path d="M80.19,365.06 C103.8,386.82 137.7971,418.1347 161.4071,439.8847 " fill="none" id="Movi&#233;ndose-to-Descargando" style="stroke:#181818;stroke-width:1.0;"/><polygon fill="#181818" points="165.82,443.95,161.9108,434.9102,162.1426,440.5623,156.4905,440.7941,165.82,443.95" style="stroke:#181818;stroke-width:1.0;"/><text fill="#000000" font-family="sans-serif" font-size="13" lengthAdjust="spacing" textLength="136.6016" x="132.5" y="410.0283">llega a la planta destino</text></g><!--link Descargando to Esperando--><g id="link_Descargando_Esperando"><path d="M233.09,449.28 C250.14,441.75 267.65,430.48 277.5,414 C281.83,406.75 277.57,403.44 277.5,395 C276.61,289.21 328.51,247.37 273.5,157 C262.12,138.3 246.5091,128.4823 227.4291,121.0323 " fill="none" id="Descargando-to-Esperando" style="stroke:#181818;stroke-width:1.0;"/><polygon fill="#181818" points="221.84,118.85,228.7687,125.8495,226.4975,120.6686,231.6785,118.3974,221.84,118.85" style="stroke:#181818;stroke-width:1.0;"/><text fill="#000000" font-family="sans-serif" font-size="13" lengthAdjust="spacing" textLength="61.4199" x="296.5" y="291.0283">fin de ciclo</text></g><!--link Movi?ndose to Movi?ndose--><g id="link_Movi&#233;ndose_Movi&#233;ndose"><path d="M102.14,334.27 C120.88,333.33 137,336.9 137,345 C137,353.1 126.8725,356.9706 108.1325,356.0306 " fill="none" id="Movi&#233;ndose-to-Movi&#233;ndose" style="stroke:#181818;stroke-width:1.0;"/><polygon fill="#181818" points="102.14,355.73,110.9283,360.1759,107.1337,355.9805,111.3291,352.1859,102.14,355.73" style="stroke:#181818;stroke-width:1.0;"/><text fill="#000000" font-family="sans-serif" font-size="13" lengthAdjust="spacing" textLength="104.7871" x="143" y="350.5283">sigue movi&#233;ndose</text></g><!--link Cargando to Cargando--><g id="link_Cargando_Cargando"><path d="M78.05,215.51 C96.43,213.89 113,217.39 113,226 C113,234.61 102.4068,238.6368 84.0268,237.0168 " fill="none" id="Cargando-to-Cargando" style="stroke:#181818;stroke-width:1.0;"/><polygon fill="#181818" points="78.05,236.49,86.664,241.2647,83.0307,236.929,87.3664,233.2956,78.05,236.49" style="stroke:#181818;stroke-width:1.0;"/><text fill="#000000" font-family="sans-serif" font-size="13" lengthAdjust="spacing" textLength="145.9897" x="119" y="231.5283">sigue cargando personas</text></g><!--link Descargando to Descargando--><g id="link_Descargando_Descargando"><path d="M233.4,453.19 C252.21,452.58 268,456.18 268,464 C268,471.82 258.2068,475.6145 239.3968,475.0045 " fill="none" id="Descargando-to-Descargando" style="stroke:#181818;stroke-width:1.0;"/><polygon fill="#181818" points="233.4,474.81,242.2656,479.0996,238.3974,474.9721,242.5249,471.1038,233.4,474.81" style="stroke:#181818;stroke-width:1.0;"/><text fill="#000000" font-family="sans-serif" font-size="13" lengthAdjust="spacing" textLength="166.9497" x="274" y="469.5283">sigue descargando personas</text></g><!--SRC=[PP1DQiD038NtSmhj2e5S88j2QBhi2KeNOaPr16FDC983FbBFqOj5TeXZ9plzVNfwUeCJOzUmHqW4dsgOYXxWg954ImjdzZBrrKRlQsnSZOk4yBtxWVt-tObA3IML49PmRdnWw-Ra05eoHxOX0GdKZ68866t079Qf2Vag5_x_yqp9gJfGCrI8r1ec3qOuumY6ZJof98b9Z3IiiMdDoUzyYETCdSj1nhkq-p2M4jPp6ojE_R9C_uWSipjxLjWUgjmD1FsZjdMrViGykOYwd1P1VRbaw-16fLNj3bu1]--></g></svg>