<svg xmlns="http://www.w3.org/2000/svg" xmlns:xlink="http://www.w3.org/1999/xlink" contentStyleType="text/css" height="626.4px" preserveAspectRatio="none" style="width:571px;height:626px;background:#FFFFFF;" version="1.1" viewBox="0 0 571 626" width="571.2px" zoomAndPan="magnify"><defs/><g><!--cluster modelo--><g id="cluster_modelo"><path d="M41.2,310.4109 L81.8234,310.4109 A3,3 0 0 1 83.8234,312.4109 L89.4234,330.1078 L250,330.1078 A2,2 0 0 1 252,332.1078 L252,618.8109 A2,2 0 0 1 250,620.8109 L41.2,620.8109 A2,2 0 0 1 39.2,618.8109 L39.2,312.4109 A2,2 0 0 1 41.2,310.4109 " fill="none" style="stroke:#000000;stroke-width:1.2000000000000002;"/><line style="stroke:#000000;stroke-width:1.2000000000000002;" x1="39.2" x2="89.4234" y1="330.1078" y2="330.1078"/><text fill="#000000" font-family="sans-serif" font-size="11.2" font-weight="bold" lengthAdjust="spacing" textLength="39.8234" x="42.4" y="324.0969">modelo</text></g><!--cluster controlador--><g id="cluster_controlador"><path d="M6.8,218.4109 L69.8234,218.4109 A3,3 0 0 1 71.8234,220.4109 L77.4234,238.1078 L183.6,238.1078 A2,2 0 0 1 185.6,240.1078 L185.6,282.0109 A2,2 0 0 1 183.6,284.0109 L6.8,284.0109 A2,2 0 0 1 4.8,282.0109 L4.8,220.4109 A2,2 0 0 1 6.8,218.4109 " fill="none" style="stroke:#000000;stroke-width:1.2000000000000002;"/><line style="stroke:#000000;stroke-width:1.2000000000000002;" x1="4.8" x2="77.4234" y1="238.1078" y2="238.1078"/><text fill="#000000" font-family="sans-serif" font-size="11.2" font-weight="bold" lengthAdjust="spacing" textLength="62.2234" x="8" y="232.0969">controlador</text></g><!--cluster vista--><g id="cluster_vista"><path d="M247.6,4.8109 L273.9281,4.8109 A3,3 0 0 1 275.9281,6.8109 L281.5281,24.5078 L563.6,24.5078 A2,2 0 0 1 565.6,26.5078 L565.6,68.4109 A2,2 0 0 1 563.6,70.4109 L247.6,70.4109 A2,2 0 0 1 245.6,68.4109 L245.6,6.8109 A2,2 0 0 1 247.6,4.8109 " fill="none" style="stroke:#000000;stroke-width:1.2000000000000002;"/><line style="stroke:#000000;stroke-width:1.2000000000000002;" x1="245.6" x2="281.5281" y1="24.5078" y2="24.5078"/><text fill="#000000" font-family="sans-serif" font-size="11.2" font-weight="bold" lengthAdjust="spacing" textLength="25.5281" x="248.8" y="18.4969">vista</text></g><!--class Universidad--><g id="elem_Universidad"><rect codeLine="6" fill="#F1F1F1" height="22.8969" id="Universidad" rx="2" ry="2" style="stroke:#181818;stroke-width:0.4000000000000001;" width="63.9391" x="52" y="340.0109"/><text fill="#000000" font-family="sans-serif" font-size="11.2" lengthAdjust="spacing" textLength="59.1391" x="54.4" y="356.0969">Universidad</text></g><!--class Planta--><g id="elem_Planta"><rect codeLine="7" fill="#F1F1F1" height="22.8969" id="Planta" rx="2" ry="2" style="stroke:#181818;stroke-width:0.4000000000000001;" width="36.557" x="202.4" y="412.0109"/><text fill="#000000" font-family="sans-serif" font-size="11.2" lengthAdjust="spacing" textLength="31.757" x="204.8" y="428.0969">Planta</text></g><!--class Persona--><g id="elem_Persona"><rect codeLine="8" fill="#F1F1F1" height="22.8969" id="Persona" rx="2" ry="2" style="stroke:#181818;stroke-width:0.4000000000000001;" width="46.5156" x="63.2" y="498.4109"/><text fill="#000000" font-family="sans-serif" font-size="11.2" lengthAdjust="spacing" textLength="41.7156" x="65.6" y="514.4969">Persona</text></g><!--class Llamada--><g id="elem_Llamada"><rect codeLine="9" fill="#F1F1F1" height="22.8969" id="Llamada" rx="2" ry="2" style="stroke:#181818;stroke-width:0.4000000000000001;" width="47.7625" x="112" y="584.8109"/><text fill="#000000" font-family="sans-serif" font-size="11.2" lengthAdjust="spacing" textLength="42.9625" x="114.4" y="600.8969">Llamada</text></g><!--class Ascensor--><g id="elem_Ascensor"><rect codeLine="10" fill="#F1F1F1" height="22.8969" id="Ascensor" rx="2" ry="2" style="stroke:#181818;stroke-width:0.4000000000000001;" width="51.4867" x="123.2" y="412.0109"/><text fill="#000000" font-family="sans-serif" font-size="11.2" lengthAdjust="spacing" textLength="46.6867" x="125.6" y="428.0969">Ascensor</text></g><!--class Tiempo--><g id="elem_Tiempo"><rect codeLine="11" fill="#F1F1F1" height="22.8969" id="Tiempo" rx="2" ry="2" style="stroke:#181818;stroke-width:0.4000000000000001;" width="42.1461" x="52.4" y="412.0109"/><text fill="#000000" font-family="sans-serif" font-size="11.2" lengthAdjust="spacing" textLength="37.3461" x="54.8" y="428.0969">Tiempo</text></g><!--class ControlAscensor--><g id="elem_ControlAscensor"><rect codeLine="15" fill="#F1F1F1" height="22.8969" id="ControlAscensor" rx="2" ry="2" style="stroke:#181818;stroke-width:0.4000000000000001;" width="87.5914" x="18" y="248.0109"/><text fill="#000000" font-family="sans-serif" font-size="11.2" lengthAdjust="spacing" textLength="82.7914" x="20.4" y="264.0969">ControlAscensor</text></g><!--class Mundo--><g id="elem_Mundo"><rect codeLine="16" fill="#F1F1F1" height="22.8969" id="Mundo" rx="2" ry="2" style="stroke:#181818;stroke-width:0.4000000000000001;" width="39.0453" x="133.2" y="248.0109"/><text fill="#000000" font-family="sans-serif" font-size="11.2" lengthAdjust="spacing" textLength="34.2453" x="135.6" y="264.0969">Mundo</text></g><!--class ConsolaVista--><g id="elem_ConsolaVista"><rect codeLine="20" fill="#F1F1F1" height="22.8969" id="ConsolaVista" rx="2" ry="2" style="stroke:#181818;stroke-width:0.4000000000000001;" width="70.7914" x="258.4" y="34.4109"/><text fill="#000000" font-family="sans-serif" font-size="11.2" lengthAdjust="spacing" textLength="65.9914" x="260.8" y="50.4969">ConsolaVista</text></g><!--class LineaVista--><g id="elem_LineaVista"><rect codeLine="21" fill="#F1F1F1" height="22.8969" id="LineaVista" rx="2" ry="2" style="stroke:#181818;stroke-width:0.4000000000000001;" width="57.1031" x="357.2" y="34.4109"/><text fill="#000000" font-family="sans-serif" font-size="11.2" lengthAdjust="spacing" textLength="52.3031" x="359.6" y="50.4969">LineaVista</text></g><!--class RepresentadorPlanta--><g id="elem_RepresentadorPlanta"><rect codeLine="22" fill="#F1F1F1" height="22.8969" id="RepresentadorPlanta" rx="2" ry="2" style="stroke:#181818;stroke-width:0.4000000000000001;" width="110.6477" x="442.4" y="34.4109"/><text fill="#000000" font-family="sans-serif" font-size="11.2" lengthAdjust="spacing" textLength="105.8477" x="444.8" y="50.4969">RepresentadorPlanta</text></g><!--class Main--><g id="elem_Main"><rect codeLine="25" fill="#F1F1F1" height="22.8969" id="Main" rx="2" ry="2" style="stroke:#181818;stroke-width:0.4000000000000001;" width="29.0758" x="144" y="157.6109"/><text fill="#000000" font-family="sans-serif" font-size="11.2" lengthAdjust="spacing" textLength="24.2758" x="146.4" y="173.6969">Main</text></g><!--reverse link Universidad to Planta--><g id="link_Universidad_Planta"><path codeLine="28" d="M113.6087,367.6505 C140.2167,381.3385 177.024,400.2829 202.336,413.3069 " fill="none" id="Universidad-backto-Planta" style="stroke:#181818;stroke-width:0.8000000000000002;"/><polygon fill="#181818" points="105.072,363.2589,107.8765,368.3003,113.6087,367.6505,110.8042,362.6091,105.072,363.2589" style="stroke:#181818;stroke-width:0.8000000000000002;"/><text fill="#000000" font-family="sans-serif" font-size="10.4" lengthAdjust="spacing" textLength="5.784" x="105.3352" y="380.4473">1</text><text fill="#000000" font-family="sans-serif" font-size="10.4" lengthAdjust="spacing" textLength="4.0473" x="191.8594" y="405.5631">*</text></g><!--reverse link Universidad to Ascensor--><g id="link_Universidad_Ascensor"><path codeLine="29" d="M94.7715,371.5682 C99.0675,378.9362 100.44,380.3949 107.2,388.0109 C115.072,396.8829 125.272,405.4509 133.608,411.8669 " fill="none" id="Universidad-backto-Ascensor" style="stroke:#181818;stroke-width:0.8000000000000002;"/><polygon fill="#181818" points="89.936,363.2749,89.5893,369.0334,94.7715,371.5682,95.1182,365.8097,89.936,363.2749" style="stroke:#181818;stroke-width:0.8000000000000002;"/><text fill="#000000" font-family="sans-serif" font-size="10.4" lengthAdjust="spacing" textLength="5.784" x="85.3746" y="380.4684">1</text><text fill="#000000" font-family="sans-serif" font-size="10.4" lengthAdjust="spacing" textLength="4.0473" x="123.4407" y="402.9788">*</text></g><!--reverse link Universidad to ControlAscensor--><g id="link_Universidad_ControlAscensor"><path codeLine="30" d="M78.9929,330.5973 C74.6969,313.2773 68.672,288.9389 64.344,271.4989 " fill="none" id="Universidad-backto-ControlAscensor" style="stroke:#181818;stroke-width:0.8000000000000002;"/><polygon fill="none" points="81.304,339.9149,83.2543,334.4857,78.9929,330.5973,77.0426,336.0265,81.304,339.9149" style="stroke:#181818;stroke-width:0.8000000000000002;"/><text fill="#000000" font-family="sans-serif" font-size="10.4" lengthAdjust="spacing" textLength="5.784" x="73.7897" y="331.0439">1</text><text fill="#000000" font-family="sans-serif" font-size="10.4" lengthAdjust="spacing" textLength="5.784" x="58.6951" y="288.5269">1</text></g><!--reverse link Universidad to Tiempo--><g id="link_Universidad_Tiempo"><path codeLine="31" d="M80.9741,372.908 C79.0221,386.132 77.16,398.6989 75.216,411.8909 " fill="none" id="Universidad-backto-Tiempo" style="stroke:#181818;stroke-width:0.8000000000000002;"/><polygon fill="none" points="82.376,363.4109,78.5094,367.6922,80.9741,372.908,84.8408,368.6268,82.376,363.4109" style="stroke:#181818;stroke-width:0.8000000000000002;"/><text fill="#000000" font-family="sans-serif" font-size="10.4" lengthAdjust="spacing" textLength="5.784" x="75.4049" y="380.6478">1</text><text fill="#000000" font-family="sans-serif" font-size="10.4" lengthAdjust="spacing" textLength="5.784" x="69.2722" y="403.0113">1</text></g><!--reverse link Planta to Persona--><g id="link_Planta_Persona"><path codeLine="32" d="M203.9775,442.1316 C193.3375,453.0676 182.432,463.0269 164.8,474.4109 C147.408,485.6349 125.792,494.9309 109.664,501.0829 " fill="none" id="Planta-backto-Persona" style="stroke:#181818;stroke-width:0.8000000000000002;"/><polygon fill="#181818" points="210.672,435.2509,205.0312,436.4598,203.9775,442.1316,209.6183,440.9228,210.672,435.2509" style="stroke:#181818;stroke-width:0.8000000000000002;"/><text fill="#000000" font-family="sans-serif" font-size="10.4" lengthAdjust="spacing" textLength="39.3199" x="185.6" y="471.2336">contiene</text><text fill="#000000" font-family="sans-serif" font-size="10.4" lengthAdjust="spacing" textLength="5.784" x="201.0192" y="452.4368">1</text><text fill="#000000" font-family="sans-serif" font-size="10.4" lengthAdjust="spacing" textLength="4.0473" x="116.1291" y="494.744">*</text></g><!--reverse link Ascensor to Persona--><g id="link_Ascensor_Persona"><path codeLine="33" d="M127.8386,441.6285 C120.3906,448.0445 118.648,450.3469 112,459.2109 C102.76,471.5389 95.176,487.6989 90.72,498.2589 " fill="none" id="Ascensor-backto-Persona" style="stroke:#181818;stroke-width:0.8000000000000002;"/><polygon fill="#181818" points="135.112,435.3629,129.3868,436.0713,127.8386,441.6285,133.5638,440.9202,135.112,435.3629" style="stroke:#181818;stroke-width:0.8000000000000002;"/><text fill="#000000" font-family="sans-serif" font-size="10.4" lengthAdjust="spacing" textLength="45.0938" x="112.8" y="471.2336">pasajeros</text><text fill="#000000" font-family="sans-serif" font-size="10.4" lengthAdjust="spacing" textLength="4.0473" x="126.0733" y="452.5845">*</text><text fill="#000000" font-family="sans-serif" font-size="10.4" lengthAdjust="spacing" textLength="4.0473" x="87.5343" y="489.3679">*</text></g><!--reverse link Ascensor to Llamada--><g id="link_Ascensor_Llamada"><path codeLine="34" d="M157.7644,444.2433 C160.6364,450.9473 160.136,450.9709 161.6,459.2109 C166.296,485.5869 174.848,498.3629 156,560.8109 C153.424,569.3469 148.424,578.0509 144.064,584.6189 " fill="none" id="Ascensor-backto-Llamada" style="stroke:#181818;stroke-width:0.8000000000000002;"/><polygon fill="#181818" points="153.984,435.4189,152.9327,441.0912,157.7644,444.2433,158.8156,438.571,153.984,435.4189" style="stroke:#181818;stroke-width:0.8000000000000002;"/><text fill="#000000" font-family="sans-serif" font-size="10.4" lengthAdjust="spacing" textLength="56.0676" x="168.8" y="514.4336">colaServicio</text><text fill="#000000" font-family="sans-serif" font-size="10.4" lengthAdjust="spacing" textLength="4.0473" x="150.9224" y="452.4224">*</text><text fill="#000000" font-family="sans-serif" font-size="10.4" lengthAdjust="spacing" textLength="4.0473" x="142.275" y="575.7137">*</text></g><!--link Persona to Llamada--><g id="link_Persona_Llamada"><path codeLine="35" d="M92.888,521.8989 C102.44,538.2349 117.7754,564.4603 127.2474,580.6443 " fill="none" id="Persona-to-Llamada" style="stroke:#181818;stroke-width:0.8000000000000002;"/><polygon fill="#181818" points="129.672,584.7869,128.7969,576.9566,127.6515,581.3347,123.2734,580.1893,129.672,584.7869" style="stroke:#181818;stroke-width:0.8000000000000002;"/><text fill="#000000" font-family="sans-serif" font-size="10.4" lengthAdjust="spacing" textLength="32.3832" x="116.8" y="557.6336">genera</text><text fill="#000000" font-family="sans-serif" font-size="10.4" lengthAdjust="spacing" textLength="5.784" x="88.4279" y="538.9269">1</text><text fill="#000000" font-family="sans-serif" font-size="10.4" lengthAdjust="spacing" textLength="17.3469" x="107.5857" y="575.7146">0..1</text></g><!--link Mundo to Universidad--><g id="link_Mundo_Universidad"><path codeLine="38" d="M144.36,271.4989 C131.088,288.9389 108.3793,318.7756 95.1953,336.0956 " fill="none" id="Mundo-to-Universidad" style="stroke:#181818;stroke-width:0.8000000000000002;stroke-dasharray:7.0,7.0;"/><polygon fill="#181818" points="92.288,339.9149,99.1952,336.1241,94.7108,336.7321,94.1027,332.2477,92.288,339.9149" style="stroke:#181818;stroke-width:0.8000000000000002;"/></g><!--link Mundo to Tiempo--><g id="link_Mundo_Tiempo"><path codeLine="39" d="M152.216,271.2669 C150.784,290.7549 145.904,332.5069 129.6,363.2109 C119.08,383.0269 103.8801,397.9822 90.9761,408.9022 " fill="none" id="Mundo-to-Tiempo" style="stroke:#181818;stroke-width:0.8000000000000002;stroke-dasharray:7.0,7.0;"/><polygon fill="#181818" points="87.312,412.0029,94.8753,409.7946,90.3654,409.419,90.741,404.9091,87.312,412.0029" style="stroke:#181818;stroke-width:0.8000000000000002;"/></g><!--link Mundo to ConsolaVista--><g id="link_Mundo_ConsolaVista"><path codeLine="40" d="M146.24,247.8989 C135.8,229.0509 117.72,189.3469 129.6,157.6109 C144.976,116.5469 158.28,108.0749 194.4,83.2109 C213.664,69.9469 233.7337,62.2032 253.6617,56.4272 " fill="none" id="Mundo-to-ConsolaVista" style="stroke:#181818;stroke-width:0.8000000000000002;stroke-dasharray:7.0,7.0;"/><polygon fill="#181818" points="258.272,55.0909,250.4658,54.0218,254.4301,56.2045,252.2475,60.1688,258.272,55.0909" style="stroke:#181818;stroke-width:0.8000000000000002;"/></g><!--link ConsolaVista to Planta--><g id="link_ConsolaVista_Planta"><path codeLine="42" d="M304.544,57.6829 C314.88,69.1549 328.8,88.2749 328.8,108.0109 C328.8,108.0109 328.8,108.0109 328.8,352.4109 C328.8,394.6029 274.9395,411.8121 244.0595,418.4921 " fill="none" id="ConsolaVista-to-Planta" style="stroke:#181818;stroke-width:0.8000000000000002;stroke-dasharray:7.0,7.0;"/><polygon fill="#181818" points="239.368,419.5069,247.0818,421.1123,243.2776,418.6612,245.7287,414.857,239.368,419.5069" style="stroke:#181818;stroke-width:0.8000000000000002;"/></g><!--link ConsolaVista to Ascensor--><g id="link_ConsolaVista_Ascensor"><path codeLine="43" d="M287.24,57.6829 C280.864,69.6109 272,89.5309 272,108.0109 C272,108.0109 272,108.0109 272,352.4109 C272,374.9149 254.824,375.6829 236,388.0109 C216.912,400.5149 197.1862,408.2795 179.0982,414.0875 " fill="none" id="ConsolaVista-to-Ascensor" style="stroke:#181818;stroke-width:0.8000000000000002;stroke-dasharray:7.0,7.0;"/><polygon fill="#181818" points="174.528,415.5549,182.3616,416.4005,178.3365,414.332,180.405,410.3069,174.528,415.5549" style="stroke:#181818;stroke-width:0.8000000000000002;"/></g><!--link ConsolaVista to Tiempo--><g id="link_ConsolaVista_Tiempo"><path codeLine="44" d="M261.256,57.6269 C239.664,67.1149 215.2,83.3229 215.2,108.0109 C215.2,108.0109 215.2,108.0109 215.2,352.4109 C215.2,365.6589 139.1871,397.1906 99.5711,412.7666 " fill="none" id="ConsolaVista-to-Tiempo" style="stroke:#181818;stroke-width:0.8000000000000002;stroke-dasharray:7.0,7.0;"/><polygon fill="#181818" points="95.104,414.5229,102.9756,414.8665,98.8266,413.0593,100.6338,408.9103,95.104,414.5229" style="stroke:#181818;stroke-width:0.8000000000000002;"/></g><!--link LineaVista to Planta--><g id="link_LineaVista_Planta"><path codeLine="46" d="M405.784,57.7869 C422.112,68.3069 442.4,85.8349 442.4,108.0109 C442.4,108.0109 442.4,108.0109 442.4,352.4109 C442.4,374.9149 426.336,377.5709 406.4,388.0109 C350.64,417.2189 278.9191,422.1044 244.1431,422.7604 " fill="none" id="LineaVista-to-Planta" style="stroke:#181818;stroke-width:0.8000000000000002;stroke-dasharray:7.0,7.0;"/><polygon fill="#181818" points="239.344,422.8509,246.6031,425.9146,243.3433,422.7755,246.4824,419.5157,239.344,422.8509" style="stroke:#181818;stroke-width:0.8000000000000002;"/></g><!--link LineaVista to Ascensor--><g id="link_LineaVista_Ascensor"><path codeLine="47" d="M385.6,57.6429 C385.6,69.8749 385.6,90.3709 385.6,108.0109 C385.6,108.0109 385.6,108.0109 385.6,352.4109 C385.6,355.1389 240.5846,396.7047 179.2086,414.1767 " fill="none" id="LineaVista-to-Ascensor" style="stroke:#181818;stroke-width:0.8000000000000002;stroke-dasharray:7.0,7.0;"/><polygon fill="#181818" points="174.592,415.4909,182.393,416.5973,178.4392,414.3958,180.6407,410.4419,174.592,415.4909" style="stroke:#181818;stroke-width:0.8000000000000002;"/></g><!--link RepresentadorPlanta to Planta--><g id="link_RepresentadorPlanta_Planta"><path codeLine="49" d="M498.056,57.6429 C498.528,69.8749 499.2,90.3709 499.2,108.0109 C499.2,108.0109 499.2,108.0109 499.2,352.4109 C499.2,406.1949 306.2591,419.107 244.0751,421.907 " fill="none" id="RepresentadorPlanta-to-Planta" style="stroke:#181818;stroke-width:0.8000000000000002;stroke-dasharray:7.0,7.0;"/><polygon fill="#181818" points="239.28,422.1229,246.6167,424.9958,243.276,421.943,246.3288,418.6023,239.28,422.1229" style="stroke:#181818;stroke-width:0.8000000000000002;"/></g><!--link Main to Mundo--><g id="link_Main_Mundo"><path codeLine="51" d="M157.712,180.8989 C156.64,197.9389 154.8684,225.9483 153.7964,243.0443 " fill="none" id="Main-to-Mundo" style="stroke:#181818;stroke-width:0.8000000000000002;stroke-dasharray:7.0,7.0;"/><polygon fill="#181818" points="153.496,247.8349,157.1403,240.8493,153.7463,243.8428,150.7529,240.4488,153.496,247.8349" style="stroke:#181818;stroke-width:0.8000000000000002;"/></g><!--SRC=[ZLFBRi8m4BpxArQvL4AA1LSEIAYzL6gbghIzByaM38uTsG698lwz3ZR18U7XIwJ9xEnuThqKEG4LPRM3Weev6SkMDPG9aqbYTYrKYGOBo2HQEwqg8-QRYbuphMRYZs38M8dP6XS4XSv9QjWpy6JuLcBh14MEEUmF3VmXKLNOGXnBgnRq9h70l0LDRKRAQXDZNy9vrpLoE1jntYgZ9UOrjw4-UxHFvNsZyakHhR2roRZSEiqV3qT6XQ8k-acb8Klkdix4-S9EFtH4eHXxSZo9cT2AB9H6g4oKACao7oMF0qn62GpI59914fBcNlT1ykdUr-Ywfhjl51w_YEnUQVZjPy9Q9i6Vlak4sRipFZONf8XTcFR5Wzl59LfSaT7sqUhJZeNM4cTajiADWtNblVSqdK0ov7pKrHZ3mXatM4_rXKfIERbneWNtc7xbPgLXvtUAnGdxpUDy0jriRnD3olsSOoCUhonZNSnH8y6mJVTepJBS8mQ3WHSz4ywlzxrEQ_e6PjyBwwgo-g4TyKvG_m00]--></g></svg>